# xmcd
#
# Track frame offsets: 
#        150
#        15698
#        31382
#        44635
#        60187
#        75664
#        90470
#        102833
#        117395
#        131509
#        144459
#        159373
#        173340
#        187178
#        201089
#        216219
#        231363
#        245660
#        261115
#        275354
#        289924
#        304147
#
# Disc length: 4264 seconds
#
# Revision: 0
# Processed by: cddbd v1.5.2PL0 Copyright (c) Steve Scherf et al.
# Submitted via: ExactAudioCopy v0.95b4
#
DISCID=3710a616
DTITLE=Bessie Smith - The Essence Of Bessie Smith CD1
DYEAR=2006
DGENRE=Blues
TTITLE0=Down Hearted Blues
TTITLE1=Gimme A Pigfoot (And A Bottle Of Beer)
TTITLE2=Baby Won't You Please Come Home
TTITLE3='Taint Nobody's Business If I Do
TTITLE4=Any Woman's Blues
TTITLE5=Chicago Bound Blues
TTITLE6=Graveyard Dream Blues
TTITLE7=Jail House Blues
TTITLE8=Lady Luck Blues
TTITLE9=Boweavil Blues
TTITLE10=Bye Bye Blues
TTITLE11=House Rent Blues
TTITLE12=Sing Sing Prison Blues
TTITLE13=Woman's Trouble Blues
TTITLE14=Work House Blues
TTITLE15=Ain't Gonna Play Second Fiddle
TTITLE16=St. Louis Blues
TTITLE17=Careless Love Blues
TTITLE18=He's Gone Blues
TTITLE19=Love Me Daddy Blues
TTITLE20=Sinful Blues
TTITLE21=You've Been A Good Old Wagon
EXTD=
EXTT0=
EXTT1=
EXTT2=
EXTT3=
EXTT4=
EXTT5=
EXTT6=
EXTT7=
EXTT8=
EXTT9=
EXTT10=
EXTT11=
EXTT12=
EXTT13=
EXTT14=
EXTT15=
EXTT16=
EXTT17=
EXTT18=
EXTT19=
EXTT20=
EXTT21=
PLAYORDER=
